<?xml version="1.0" encoding="UTF-8"?>
<svg width="85px" height="87px" viewBox="0 0 85 87" version="1.1" xmlns="http://www.w3.org/2000/svg" xmlns:xlink="http://www.w3.org/1999/xlink">
    <!-- Generator: Sketch 57.1 (83088) - https://sketch.com -->
    <title>Group 4</title>
    <desc>Created with Sketch.</desc>
    <g id="Page-1" stroke="none" stroke-width="1" fill="none" fill-rule="evenodd">
        <g id="Group-4" transform="translate(1.000000, 3.000000)">
            <circle id="Oval" fill="#F23D3D" cx="42" cy="42" r="42"></circle>
            <path d="M2,58.8771172 C13.5118966,53.9497638 24.1785633,47.6573914 34,40 C48.7321551,28.513913 57.9123328,17.337081 61,12.8771172 C64.0876672,8.41715348 63.3685672,3.49825753 59,0.877117226 C54.6314328,-1.74402308 48,1.87711723 45,6.87711723 C43.5406337,9.30939433 37.0738244,22.4374245 31,46.8771172 C29.4999359,52.9130351 27.4999359,63.5797017 25,78.8771172 C29.9499922,56.5529813 38.2833255,43.2606089 50,39 C55.0960042,37.1469076 57.8311667,37.8692788 58.9014876,39.5762563 C60.1415121,41.5538818 59.1469076,44.8530924 57,47 C53,51 49,54.8771172 41,58.8771172 C41.6666667,66.2104506 50,72.8771172 66,78.8771172" id="line" stroke="#FFFFFF" stroke-width="6" stroke-linecap="round" stroke-linejoin="round"></path>
        </g>
    </g>
</svg>