<?xml version="1.0" encoding="UTF-8"?>
<svg width="122px" height="120px" viewBox="0 0 122 120" version="1.1" xmlns="http://www.w3.org/2000/svg" xmlns:xlink="http://www.w3.org/1999/xlink">
    <!-- Generator: Sketch 57.1 (83088) - https://sketch.com -->
    <title>prototyping</title>
    <desc>Created with Sketch.</desc>
    <g id="Page-1" stroke="none" stroke-width="1" fill="none" fill-rule="evenodd">
        <g id="Desktop-HD" transform="translate(-780.000000, -1045.000000)">
            <g id="prototyping" transform="translate(780.000000, 1045.000000)">
                <path d="M122,59.9995597 C122,93.136865 94.6896405,120 60.9995524,120 C27.3121501,120 0,93.136865 0,59.9995597 C0,26.863135 27.3121501,0 60.9995524,0 C94.6896405,0 122,26.863135 122,59.9995597" id="Fill-1" fill="#FFFFFF"></path>
                <g id="Group-4" transform="translate(38.000000, 43.000000)" stroke="#000002" stroke-width="3">
                    <polygon id="Path-17" transform="translate(23.000000, 13.500000) scale(-1, 1) translate(-23.000000, -13.500000) " points="39 0 7 0 7 27 39 27"></polygon>
                    <polyline id="Path-17" points="16 26 16 20 30 20 30 26"></polyline>
                    <polygon id="Path-17" transform="translate(23.000000, 9.000000) scale(-1, 1) translate(-23.000000, -9.000000) " points="13 12 13 6 33 6 33 12"></polygon>
                    <polyline id="Path-17" points="39 5 46 9.43966347 46 16.4775932 39 21"></polyline>
                    <polyline id="Path-17" transform="translate(3.500000, 13.000000) scale(-1, 1) translate(-3.500000, -13.000000) " points="0 5 7 9.43966347 7 16.4775932 0 21"></polyline>
                    <path d="M18.5,28.6 L18.5,33.4" id="Line-3" stroke-linecap="square"></path>
                    <path d="M27.5,28.6 L27.5,33.4" id="Line-3" stroke-linecap="square"></path>
                </g>
            </g>
        </g>
    </g>
</svg>