<?xml version="1.0" encoding="UTF-8"?>
<svg width="294px" height="288px" viewBox="0 0 294 288" version="1.1" xmlns="http://www.w3.org/2000/svg" xmlns:xlink="http://www.w3.org/1999/xlink">
    <!-- Generator: Sketch 57.1 (83088) - https://sketch.com -->
    <title>Group 9</title>
    <desc>Created with Sketch.</desc>
    <g id="Page-1" stroke="none" stroke-width="1" fill="none" fill-rule="evenodd">
        <g id="Desktop-HD" transform="translate(-286.000000, -230.000000)">
            <g id="Group-9" transform="translate(286.000000, 230.000000)">
                <path d="M246,139.999252 C246,196.33267 200.333497,242 143.999251,242 C87.6694968,242 42,196.33267 42,139.999252 C42,83.6673296 87.6694968,38 143.999251,38 C200.333497,38 246,83.6673296 246,139.999252" id="Fill-1" fill="#FAFBFF"></path>
                <polygon id="Path-35" fill="#5ABD65" points="112.066019 188.867842 84.2711303 193.815967 66 211.815912 46 269.108056 243.039545 269.108056 225.438356 211.815912 204.296762 192.815967 175.309816 188"></polygon>
                <path d="M109,144 L109,188.541393 C119.003411,194.847131 130.837597,198 144.502558,198 C158.167519,198 169.333333,194.847131 178,188.541393 L178,144 L109,144 Z" id="Path-21" fill="#EFAE83"></path>
                <polygon id="Path-34" fill="#EFAE83" points="198.854049 80 201 107.470177 199.927025 115.652898 191 124 194.756414 82.4670172"></polygon>
                <polygon id="Path-34" fill="#EFAE83" transform="translate(91.000000, 102.000000) scale(-1, 1) translate(-91.000000, -102.000000) " points="93.8540495 80 96 107.470177 94.9270247 115.652898 86 124 89.7564143 82.4670172"></polygon>
                <path d="M113.349852,32 L173.773852,32 C182.324854,32 189.54506,38.3515904 190.635149,46.8328256 L198,104.133679 L198,104.133679 L189.657791,139.383519 L179.333803,164.543559 C173.511157,178.733618 159.692703,188 144.354484,188 C128.985708,188 115.108583,178.803906 109.119153,164.650249 L98.4269841,139.383519 L98.4269841,139.383519 L89,104.133679 L96.4931928,46.797042 C97.5995009,38.3317605 104.812587,32 113.349852,32 Z" id="Rectangle" fill="#FFD2B5"></path>
                <path d="M116.290613,31.7525713 C111.43956,35.6626776 108.925817,42.1048758 110.338469,48.6081347 L110.338469,48.6081347 L113,60.8607096 L105.48053,70.8330094 L101.566827,104.000851 L103.546155,139.30652 L110.701248,155.126825 L118,159.955654 L116.035075,166.920208 L117.70879,170.620884 C122.494015,181.201281 133.030623,188 144.642823,188 L144.523598,187.999624 C144.467247,187.999875 144.410876,188 144.354484,188 C128.987285,188 115.11319,178.800245 109.13241,164.644643 L98.4269841,139.30652 L89,104.000851 L96.4958038,46.5533945 C97.6005619,38.0865846 104.81433,31.7529273 113.352911,31.7529273 Z M144.642823,188 L144.523598,187.999624 C145.200391,187.996616 145.87417,187.975561 146.544378,187.936833 C145.914597,187.978834 145.280436,188 144.642823,188 Z M123.342429,28.3869325 C124.967854,28.0338542 126.636298,27.9212351 128.294427,28.0526751 L167.238671,31.1397874 C168.405255,31.2322623 169.534965,31.4404292 170.617432,31.752135 L116.290613,31.7525713 C118.283483,30.146253 120.670813,28.9672668 123.342429,28.3869325 Z M146.54449,187.937044 C157.324777,187.221836 166.855045,180.465984 171.051124,170.392562 L171.051124,170.392562 L184,139.30652 L188.269284,104.000851 C185.379389,85.7810824 183.289627,72.1235289 182,63.0281911 C181.48508,59.3966216 181.654025,55.6205709 182.506836,51.7000389 C182.669601,50.9517756 182.781623,50.1933697 182.842135,49.4300029 C183.491586,41.2371056 178.219571,33.9412378 170.617432,31.752135 L173.770837,31.7529273 C182.323134,31.7529273 189.544009,38.1063875 190.632567,46.5891243 L198,104.000851 L189.657791,139.30652 L179.320772,164.538216 C173.803242,178.005989 161.080055,187.041276 146.689191,187.928186 Z" id="Combined-Shape" fill="#FCCBAB"></path>
                <path d="M98.3271625,74.7516052 L90.6160202,93 C86.9027968,79.8965046 84.5088853,69.2011837 83.4342858,60.9140372 C81.8223865,48.4833174 84.9007077,40.3313514 89.3152643,28.1432352 C92.2583021,20.0178244 96.1468826,15.711481 100.981006,15.224205 C116.667433,5.01851117 128.238995,-0.0559106405 135.695692,0.000939574614 C134.945493,1.01442193 134.505591,2.44397185 134.505591,4.13431715 C144.555105,-1.03808263 177.988052,4.05914871 189.447369,13.2104834 C188.098887,14.5936906 186.970319,17.2183083 186.970319,18.1249728 C186.970319,23.0440318 194.453396,38.5817859 194.985207,47.6362081 C195.357596,53.9763833 188.567894,47.6344725 189.447369,53.269894 C183.075733,45.5529154 165.56738,41.9616256 147.546961,41.1996377 C147.546961,41.9050937 147.546961,42.2120405 147.891532,43.3336987 C136.900922,42.5891373 126.978724,40.8396106 122.025762,36.3463781 C113.634818,36.3463781 105.012618,40.1096547 96.1591603,47.6362081 L98.3271625,74.7516052 Z" id="Path-31" fill="#9C6140"></path>
                <path d="M175.851465,74.4608014 L169.26932,94 C165.03651,85.4782742 162.387344,77.1394821 161.32182,68.9836235 C159.723534,56.7498356 164.374142,41.7379767 168.751415,29.7429489 C171.669596,21.7462638 175.525334,17.8351111 180.31863,18.0094908 L204,11 L204,29.0788524 L175.851465,45.0736679 L175.851465,74.4608014 Z" id="Path-31" fill="#9C6140" transform="translate(182.500000, 52.500000) scale(-1, 1) translate(-182.500000, -52.500000) "></path>
                <path d="M118.162798,99 C124.040282,99 128,95.9393804 128,92.0100759 C128,88.0807714 107,87.9560604 107,91.8853649 C107,95.8146694 112.285314,99 118.162798,99 Z" id="Oval" fill="#FFFFFF"></path>
                <path d="M168.5,99 C174.29899,99 179,95.8341751 179,91.9289322 C179,88.0236893 158,88.0236893 158,91.9289322 C158,95.8341751 162.70101,99 168.5,99 Z" id="Oval-Copy" fill="#FFFFFF"></path>
                <path d="M168.5,99 C173.104941,99 174,95.8341751 174,91.9289322 C174,88.0236893 163,88.0236893 163,91.9289322 C163,95.8341751 163.895059,99 168.5,99 Z" id="Oval" fill="#000000"></path>
                <path d="M117.5,99 C122.119833,99 123,95.8341751 123,91.9289322 C123,88.0236893 112,88.0236893 112,91.9289322 C112,95.8341751 112.880167,99 117.5,99 Z" id="Oval" fill="#000000"></path>
                <path d="M118,90.9793613 C125.179702,90.9793613 128.873724,92 131,94 C131,87.9248678 125.179702,83 118,83 C110.820298,83 105,87.9248678 105,94 C107.42553,92 110.820298,90.9793613 118,90.9793613 Z" id="Oval" fill="#EFAE83"></path>
                <path d="M144.5,128.077775 C149.746705,128.077775 152.446183,128.727273 154,130 C154,126.134007 149.746705,123 144.5,123 C139.253295,123 135,126.134007 135,130 C136.772503,128.727273 139.253295,128.077775 144.5,128.077775 Z" id="Oval" fill="#EC9E6B" transform="translate(144.500000, 126.500000) scale(1, -1) translate(-144.500000, -126.500000) "></path>
                <path d="M169,90.9793613 C176.179702,90.9793613 179.873724,92 182,94 C182,87.9248678 176.179702,83 169,83 C161.820298,83 156,87.9248678 156,94 C158.42553,92 161.820298,90.9793613 169,90.9793613 Z" id="Oval" fill="#EFAE83"></path>
                <path d="M120.538061,19.219006 C123.012207,26.4169798 129.179201,29.7258722 140,31 C126.162006,26.4169798 124.924934,19.8784539 124.924934,17.8258866 C124.924934,15.7733194 118.063916,12.0210322 120.538061,19.219006 Z" id="Path-19" fill="#723F28"></path>
                <path d="M129.620912,18.7821034 C131.876306,23.7978977 142.977395,29.6916151 154,31 C139.90393,26.2937575 134.645699,18.7821034 133.261003,16.6397576 C131.876306,14.4974117 127.365517,13.7663091 129.620912,18.7821034 Z" id="Path-19" fill="#723F28"></path>
                <path d="M142.34771,18.1274332 C143.610731,20.9488175 149.827341,24.2640335 156,25 C148.106201,22.3527386 145.161592,18.1274332 144.386161,16.9223636 C143.610731,15.7172941 141.08469,15.3060489 142.34771,18.1274332 Z" id="Path-19" fill="#723F28"></path>
                <path d="M111.796152,24.1814437 C112.878741,25.7488794 118.207264,27.5906661 123.498114,27.9995364 C116.732001,26.5288356 114.20805,24.1814437 113.543396,23.5119606 C112.878741,22.8424776 110.713563,22.614008 111.796152,24.1814437 Z" id="Path-19" fill="#723F28" transform="translate(117.498114, 25.499536) rotate(24.000000) translate(-117.498114, -25.499536) "></path>
                <path d="M172.34771,23.1274332 C173.610731,25.9488175 179.827341,29.2640335 186,30 C178.106201,27.3527386 175.161592,23.1274332 174.386161,21.9223636 C173.610731,20.7172941 171.08469,20.3060489 172.34771,23.1274332 Z" id="Path-19" fill="#723F28" transform="translate(179.000000, 25.500000) scale(-1, -1) translate(-179.000000, -25.500000) "></path>
                <polygon id="Path-32" fill="#723F28" points="107.242063 81 117.072734 81 123.772367 78.2914706 130 80.5807858 125.17679 74 114.945505 74 104 78.2914706"></polygon>
                <polygon id="Path-32" fill="#723F28" transform="translate(171.000000, 77.500000) scale(-1, 1) translate(-171.000000, -77.500000) " points="161.242063 81 171.072734 81 177.772367 78.2914706 184 80.5807858 179.17679 74 168.945505 74 158 78.2914706"></polygon>
                <polygon id="Path-33" fill="#FCBF97" points="130.557074 120 132 123.680977 113 136"></polygon>
                <polygon id="Path-33" fill="#FCBF97" transform="translate(166.500000, 128.000000) scale(-1, 1) translate(-166.500000, -128.000000) " points="173.370461 120 176 123.680977 157 136"></polygon>
                <polygon id="Rectangle" fill="#FCBF97" points="139 94 148 94 146 101.142018 148 111 139 111 141 101.142018"></polygon>
                <polygon id="Rectangle" fill="#FCBF97" points="147 160 149 164 140 164 142 160"></polygon>
                <path d="M121,145.20105 C132.108715,143.59965 139.942048,143.59965 144.5,145.20105 C149.661884,143.59965 157.495218,143.59965 168,145.20105 C160.166667,151.733683 152.333333,155 144.5,155 C136.666667,155 128.833333,151.733683 121,145.20105 Z" id="Rectangle" fill="#D7716F"></path>
                <path d="M165.000147,144.777233 L164.978167,144.846084 C163.747147,148.313094 155.047037,151 144.497425,151 C133.898582,151 125.166543,148.287958 123.999938,144.797495 C133.522254,143.606736 140.354408,143.749565 144.497425,145.225692 C149.162988,143.757873 155.997228,143.608386 165.000147,144.777233 Z" id="Combined-Shape" fill="#FFFFFF"></path>
                <rect id="Rectangle" fill="#C1675C" x="0" y="279" width="294" height="9"></rect>
                <polygon id="Rectangle" fill="#9A4439" points="4.56052419 268.5 288.995876 268.5 294 279 0 279"></polygon>
                <path d="M90,185 L200,185 C203.313708,185 206,187.686292 206,191 L206,266 L206,266 L84,266 L84,191 C84,187.686292 86.6862915,185 90,185 Z" id="Rectangle" fill="#D8D8D8"></path>
                <path d="M90,185 C92.6666667,185 95.3333333,185 98,185 C94.3094635,185.875772 93.098881,189.003882 93.098881,193.048008 C93.098881,195.744091 93.098881,220.061422 93.098881,266 L84,266 L84,191 C84,187.686292 86.6862915,185 90,185 Z" id="Rectangle" fill="#CECECE"></path>
                <path d="M148.964275,229.83433 C149.05653,229.94414 149.106551,230.313676 148.97751,230.609033 C148.515841,231.495687 147.270582,232.569056 146.127699,233.328378 C144.979951,234.090815 143.980512,234.569966 143.980512,234.569966 C143.683308,234.710538 143.473883,235.022639 143.455199,235.350899 C143.362359,237.298462 144.676129,239.098443 146.587227,240.4734 C147.136253,240.868296 147.742,241.230921 148.394993,241.551112 C147.313256,241.844159 146.174827,242 145,242 C143.458476,242 141.979618,241.731692 140.60758,241.239229 C141.592039,236.134935 142.958259,233.520387 144.198306,232.107233 C145.46517,230.66238 146.563481,230.417256 147.618195,229.919608 C148.640017,229.513079 148.868515,229.722379 148.964275,229.83433 Z M158,229 C158,234.050136 155.120358,238.427695 150.913502,240.580248 C149.66421,240.186017 148.551552,239.625813 147.657122,238.982403 C146.287882,237.997232 145.536989,236.85825 145.366491,235.916302 C145.807918,235.680328 146.409722,235.346811 147.145238,234.858314 C148.406847,234.019945 149.863672,232.905494 150.618652,231.437083 C150.622739,231.427932 150.627216,231.419755 150.631887,231.410604 C151.037306,230.54634 151.053656,229.461873 150.362515,228.645895 C149.671764,227.829137 148.367142,227.644564 146.941847,228.211718 C146.921411,228.22009 146.902142,228.229241 146.882873,228.238587 C146.138015,228.597999 144.416684,229.069947 142.819723,230.892318 C142.64397,231.0913 142.478727,231.376532 142.306866,231.607638 C142.382773,231.243359 142.422867,230.924054 142.504029,230.556854 C142.53264,230.426212 142.573708,230.300242 142.602319,230.169989 C143.209572,229.728415 143.827726,229.286256 144.394885,228.843124 C147.845137,226.144027 150.476181,223.528651 151.524666,221.211747 C152.005798,220.145387 152.131726,219.133347 151.904784,218.256428 C151.874755,218.139614 151.838196,218.02575 151.795582,217.915267 C155.517389,220.201675 158,224.310915 158,229 Z M140.402776,231.692721 C139.707846,235.105532 139.214489,238.338572 138.866422,240.465715 C136.774697,239.343584 135.025425,237.666482 133.816004,235.631051 C136.086402,234.435558 138.312774,233.089684 140.402776,231.692721 Z M145,216 C145.880456,216 146.740469,216.087528 147.571812,216.254358 C146.767975,216.554688 145.981127,217.115168 145.31394,217.927973 C145.307128,217.93615 145.3009,217.945301 145.293893,217.954452 C143.273412,220.601953 141.961004,224.826702 140.968378,229.092726 C138.516109,230.831448 135.777034,232.529021 132.993935,233.994789 C132.353488,232.456198 132,230.76938 132,229 C132,221.820298 137.820298,216 145,216 Z M148.993331,217.907327 C149.205069,217.915692 149.391732,217.961602 149.544366,218.031244 C149.847445,218.173057 150.046447,218.390349 150.148336,218.773771 C150.249229,219.156026 150.225548,219.740788 149.865953,220.518915 C149.090842,222.193833 146.561135,224.831877 143.16,227.435294 C144.096302,224.06834 145.274391,220.970812 146.677352,219.1605 C146.679342,219.158166 146.681531,219.157193 146.683919,219.153886 C147.497835,218.189398 148.358715,217.881844 148.993331,217.907327 Z" id="Combined-Shape" fill="#FFFFFF"></path>
                <path d="M88,266 L202,266 C204.209139,266 206,267.790861 206,270 L206,273 L206,273 L84,273 L84,270 C84,267.790861 85.790861,266 88,266 Z" id="Rectangle" fill="#BBB8B8" transform="translate(145.000000, 269.500000) scale(1, -1) translate(-145.000000, -269.500000) "></path>
                <path d="M257,248 C263.282312,248.870254 266.423468,251.689444 266.423468,256.457568 C266.423468,261.225692 263.282312,264.044881 257,264.915135" id="Path-40" stroke="#C6CDDC" stroke-width="5"></path>
                <g id="Group-7" transform="translate(19.000000, 234.000000) rotate(-9.000000) translate(-19.000000, -234.000000) translate(17.000000, 225.000000)">
                    <rect id="Rectangle" fill="#FBD55F" x="0" y="3" width="4" height="15"></rect>
                    <rect id="Rectangle" fill="#FFC200" x="1" y="3" width="2" height="15"></rect>
                    <rect id="Rectangle" fill="#9E9E9E" x="0" y="3" width="4" height="3"></rect>
                    <rect id="Rectangle" fill="#D1D1D1" x="1" y="3" width="1" height="3"></rect>
                    <path d="M0,0 L4,0 L4,2 C4,2.55228475 3.55228475,3 3,3 L1,3 C0.44771525,3 6.76353751e-17,2.55228475 0,2 L0,0 L0,0 Z" id="Rectangle" fill="#FF8989" transform="translate(2.000000, 1.500000) scale(1, -1) translate(-2.000000, -1.500000) "></path>
                </g>
                <g id="Group-8" transform="translate(24.500000, 240.000000) rotate(-3.000000) translate(-24.500000, -240.000000) translate(22.000000, 228.000000)">
                    <rect id="Rectangle" fill="#4E6AAF" x="0" y="7" width="5" height="17"></rect>
                    <polygon id="Rectangle" fill="#7A8DBB" transform="translate(2.500000, 3.500000) scale(1, -1) translate(-2.500000, -3.500000) " points="0 0 5 0 2.5 7"></polygon>
                    <polygon id="Rectangle" fill="#595959" transform="translate(2.500000, 2.000000) scale(1, -1) translate(-2.500000, -2.000000) " points="1 0 4 0 2.5 4"></polygon>
                </g>
                <g id="Group-6" transform="translate(35.099123, 237.519280) rotate(9.000000) translate(-35.099123, -237.519280) translate(30.599123, 222.519280)">
                    <rect id="Rectangle" fill="#F2F2F2" x="0" y="13" width="8" height="17"></rect>
                    <rect id="Rectangle" fill="#FF5E5E" x="0" y="0" width="8" height="13"></rect>
                    <rect id="Rectangle" fill="#CF4646" x="4" y="3" width="5" height="11"></rect>
                </g>
                <g id="Group-7" transform="translate(28.599123, 235.019280) rotate(3.000000) translate(-28.599123, -235.019280) translate(26.599123, 223.519280)">
                    <rect id="Rectangle" fill="#FBD55F" x="0" y="8" width="4" height="15"></rect>
                    <rect id="Rectangle" fill="#FFC200" x="1" y="8" width="2" height="15"></rect>
                    <polygon id="Rectangle" fill="#FFD1B2" points="2.01511271 0 4 8 3 9.07361484 1 9.07361484 0 8"></polygon>
                    <polygon id="Rectangle" fill="#9E9E9E" points="2.00755636 0 3 4 2.00755636 4.53680742 1 4"></polygon>
                </g>
                <path d="M226,240 C230.72,241.333333 235.848016,242 241.384048,242 C246.920079,242 252.45873,241.333333 258,240 L258,272.927671 C252.054122,274.451491 246.515472,275.213401 241.384048,275.213401 C236.252624,275.213401 231.124608,274.451491 226,272.927671 L226,240 Z" id="Rectangle" fill="#E8ECF4"></path>
                <polygon id="Rectangle" fill="#688F8F" points="17 239 26.4374143 243 39 239 39 271.927671 26.4374143 273.75 17 271.927671"></polygon>
                <polygon id="Rectangle" fill="#597575" points="17 239 26.4374143 243 26.4374143 273.75 17 271.927671"></polygon>
                <path d="M241.384048,238 C246.920079,238 252.45873,238.666667 258,240 C252.054122,241.735483 246.515472,242.603225 241.384048,242.603225 C236.252624,242.603225 231.124608,241.735483 226,240 C230.72,238.666667 235.848016,238 241.384048,238 Z" id="Rectangle" fill="#C6CDDC"></path>
                <path d="M240.889331,222 C240.238887,222.95828 239.777537,224.667394 239.505283,227.127341 C239.233028,229.587288 239.233028,232.046683 239.505283,234.505524 C238.360786,230.003367 237.868927,227.025928 238.029706,225.573208 C238.190486,224.120489 239.143694,222.929419 240.889331,222 Z" id="Rectangle" fill="#F0F0F1"></path>
                <path d="M244.889331,214 C244.238887,214.95828 243.777537,216.667394 243.505283,219.127341 C243.233028,221.587288 243.233028,224.046683 243.505283,226.505524 C242.360786,222.003367 241.868927,219.025928 242.029706,217.573208 C242.190486,216.120489 243.143694,214.929419 244.889331,214 Z" id="Rectangle" fill="#F0F0F1" transform="translate(243.444665, 220.252762) scale(-1, 1) translate(-243.444665, -220.252762) "></path>
                <path d="M244.889331,228 C244.238887,228.689657 243.777537,229.919675 243.505283,231.690055 C243.233028,233.460434 243.233028,235.230416 243.505283,237 C242.360786,233.759879 241.868927,231.61707 242.029706,230.571573 C242.190486,229.526077 243.143694,228.668886 244.889331,228 Z" id="Rectangle" fill="#F0F0F1" transform="translate(243.444665, 232.500000) scale(-1, 1) translate(-243.444665, -232.500000) "></path>
            </g>
        </g>
    </g>
</svg>