<?xml version="1.0" encoding="UTF-8"?>
<svg width="122px" height="120px" viewBox="0 0 122 120" version="1.1" xmlns="http://www.w3.org/2000/svg" xmlns:xlink="http://www.w3.org/1999/xlink">
    <!-- Generator: Sketch 57.1 (83088) - https://sketch.com -->
    <title>Group 5</title>
    <desc>Created with Sketch.</desc>
    <g id="Page-1" stroke="none" stroke-width="1" fill="none" fill-rule="evenodd">
        <g id="Desktop-HD" transform="translate(-779.000000, -1431.000000)">
            <g id="Group-5" transform="translate(779.000000, 1431.000000)">
                <path d="M122,59.9995597 C122,93.136865 94.6896405,120 60.9995524,120 C27.3121501,120 0,93.136865 0,59.9995597 C0,26.863135 27.3121501,0 60.9995524,0 C94.6896405,0 122,26.863135 122,59.9995597" id="Fill-1" fill="#FFFFFF"></path>
                <g id="Group-3" transform="translate(61.000000, 60.000000) rotate(-23.000000) translate(-61.000000, -60.000000) translate(41.000000, 31.000000)" stroke="#000002" stroke-width="3">
                    <path d="M29.5096569,17.7315399 C31.7426414,15.8975459 33.1670131,13.1151129 33.1670131,10 C33.1670131,4.4771525 28.6898606,1.13686838e-13 23.1670131,1.13686838e-13 C17.6441656,1.13686838e-13 13.1670131,4.4771525 13.1670131,10" id="Shape" stroke-linecap="round"></path>
                    <path d="M19.7880677,28 C16.971281,21.2874329 14.971281,16.6207662 13.7880677,14 C12.0132477,10.0688507 18.6664559,6.14086326 20.7880677,11 C22.2024756,14.2394245 25.4852488,21.9060912 30.6363875,34 C33.6055011,28.6474819 35.9734136,26.1943952 37.740125,26.6407398 C39.5068364,27.0870844 40.1388569,28.4798429 39.6361863,30.8190151 C38.3080054,33.6197772 37.2915601,36.3544048 36.5868502,39.0228981 C35.5297854,43.025638 36.0300737,46.9664448 33.5893795,48.2742963 C31.96225,49.1461974 25.3618127,52.0547653 13.7880677,57 C10.9574104,57.8638932 8.29074373,56.8638932 5.7880677,54 C2.03405366,49.7041603 2.12985321,47.9071133 1.75220304,44.3194367 C1.53020174,42.2104243 -1.18382623,37.7134181 0.60920411,35.9033136 C1.80455767,34.6965773 3.31589229,34.0621394 5.14320796,34 C5.87694377,32.5611205 7.09189701,31.5007922 8.7880677,30.8190151 C10.4842384,30.137238 11.8156081,30.2192587 12.7821767,31.0650773 C13.6029516,29.5393216 14.6049153,28.5176292 15.7880677,28 C16.9712201,27.4823708 18.3045534,27.4823708 19.7880677,28 Z" id="Path-17" transform="translate(19.901600, 33.022404) scale(-1, 1) translate(-19.901600, -33.022404) "></path>
                    <path d="M17.0151317,28 L20.0151317,35" id="Path-17" transform="translate(18.515132, 31.500000) scale(-1, 1) translate(-18.515132, -31.500000) "></path>
                    <path d="M24.0151317,31 L27.0151317,38" id="Path-17" transform="translate(25.515132, 34.500000) scale(-1, 1) translate(-25.515132, -34.500000) "></path>
                    <path d="M31.0151317,34 L34.0151317,41" id="Path-17" transform="translate(32.515132, 37.500000) scale(-1, 1) translate(-32.515132, -37.500000) "></path>
                </g>
            </g>
        </g>
    </g>
</svg>