<?xml version="1.0" encoding="UTF-8"?>
<svg width="122px" height="120px" viewBox="0 0 122 120" version="1.1" xmlns="http://www.w3.org/2000/svg" xmlns:xlink="http://www.w3.org/1999/xlink">
    <!-- Generator: Sketch 57.1 (83088) - https://sketch.com -->
    <title>development</title>
    <desc>Created with Sketch.</desc>
    <g id="Page-1" stroke="none" stroke-width="1" fill="none" fill-rule="evenodd">
        <g id="Desktop-HD" transform="translate(-802.000000, -1106.000000)">
            <g id="development" transform="translate(802.000000, 1106.000000)">
                <path d="M122,59.9995597 C122,93.136865 94.6896405,120 60.9995524,120 C27.3121501,120 0,93.136865 0,59.9995597 C0,26.863135 27.3121501,0 60.9995524,0 C94.6896405,0 122,26.863135 122,59.9995597" id="Fill-1" fill="#FDE4E9"></path>
                <polyline id="Path-17" stroke="#E49FAD" stroke-width="3" points="47 51 34 63.075 47 74"></polyline>
                <polyline id="Path-17" stroke="#E49FAD" stroke-width="3" transform="translate(82.500000, 62.500000) scale(-1, 1) translate(-82.500000, -62.500000) " points="89 51 76 63.075 89 74"></polyline>
                <path d="M53,46 L69,80" id="Path-17" stroke="#E49FAD" stroke-width="3" transform="translate(61.000000, 63.000000) scale(-1, 1) translate(-61.000000, -63.000000) "></path>
            </g>
        </g>
    </g>
</svg>