<svg width="592px" height="466px" viewBox="0 0 592 466" version="1.1" xmlns="http://www.w3.org/2000/svg" xmlns:xlink="http://www.w3.org/1999/xlink">
    <style type="text/css">

        #circles {
            transform-origin: center;
            animation: rotate 36s infinite; 
        }

        @keyframes rotate {
           from { transform: rotate(0); }
             to { transform: rotate(360deg); }
        }

        #inner { 
            transform-origin: center;
            animation: twoTenth 4s alternate infinite ease-in-out; 
        }
        @keyframes twoTenth {
           from { transform: scale(1.0); }
             to { transform: scale(1.2); }
        }
        
        @keyframes minusOneTenth {
            from { transform: scale(1.0); }
             to { transform: scale(0.9); }
        }
        @keyframes minusTwoTenth {
           from { transform: scale(1.0); }
             to { transform: scale(0.8); }
        }

        #topRight {
            transform-origin: center;
            animation: minusOneTenth 4s alternate infinite ease-in-out;
        }

        #bottomCenter {
            transform-origin: center;
            animation: minusOneTenth 4s alternate infinite ease-in-out;
        }

        #bottomLeft {
            transform-origin: center;
            animation: minusTwoTenth 4s alternate infinite ease-in-out;
        }

        #topLeft {
            transform-origin: center;
            animation: minusOneTenth 4s alternate infinite ease-in-out;
        }

        #bottomRight {
            transform-origin: center;
            animation: minusOneTenth 4s alternate infinite ease-in-out;
        }
        
    </style>
    <g stroke="none" stroke-width="1" fill="none" fill-rule="evenodd">
        <g id="circles">
            <path id="inner" d="M455,217.998921 C455,299.185319 388.291089,365 305.998907,365 C223.713285,365 157,299.185319 157,217.998921 C157,136.814681 223.713285,71 305.998907,71 C388.291089,71 455,136.814681 455,217.998921" fill="#F6F9F8"></path>
            <path id="topRight" d="M531,27.4997982 C531,42.6877298 518.687953,55 503.499798,55 C488.312855,55 476,42.6877298 476,27.4997982 C476,12.3122702 488.312855,0 503.499798,0 C518.687953,0 531,12.3122702 531,27.4997982" fill="#FEEEE6"></path>
            <path id="bottomLeft" d="M82,325.999699 C82,348.643524 63.6438567,367 40.9996991,367 C18.3573468,367 0,348.643524 0,325.999699 C0,303.356476 18.3573468,285 40.9996991,285 C63.6438567,285 82,303.356476 82,325.999699" fill="#DAD9E9"></path>
            <path id="bottomCenter" d="M344,429.499732 C344,449.65826 327.658555,466 307.499732,466 C287.342516,466 271,449.65826 271,429.499732 C271,409.34174 287.342516,393 307.499732,393 C327.658555,393 344,409.34174 344,429.499732" fill="#FDE4E9"></path>
            <path id="topLeft" d="M124,105.999846 C124,117.597903 114.598073,127 102.999846,127 C91.4025435,127 82,117.597903 82,105.999846 C82,94.4020973 91.4025435,85 102.999846,85 C114.598073,85 124,94.4020973 124,105.999846" fill="#E6E6F9"></path>
            <path id="bottomRight" d="M592,335.499732 C592,355.65826 575.658555,372 555.499732,372 C535.342516,372 519,355.65826 519,335.499732 C519,315.34174 535.342516,299 555.499732,299 C575.658555,299 592,315.34174 592,335.499732" fill="#FEF1F4"></path>
        </g>
    </g>
</svg>