<svg width="722px" height="722px" viewBox="0 0 722 722" version="1.1" xmlns="http://www.w3.org/2000/svg" xmlns:xlink="http://www.w3.org/1999/xlink">
    <style type="text/css">

        #circles {
            transform-origin: center;
            animation: rotate 36s linear infinite; 
        }

        @keyframes rotate {
           from { transform: rotate(0); }
             to { transform: rotate(360deg); }
        }

        #inner { 
            transform-origin: center;
            animation: oneTenth 4s alternate infinite ease-in-out; 
        }
        @keyframes oneTenth {
           from { transform: scale(1.0); }
             to { transform: scale(1.1); }
        }
        
        @keyframes minusOneTenth {
            from { transform: scale(1.0); }
             to { transform: scale(0.9); }
        }
        @keyframes minusTwoTenth {
           from { transform: scale(1.0); }
             to { transform: scale(0.8); }
        }

        #topRight {
            transform-origin: center;
            animation: minusOneTenth 4s alternate infinite ease-in-out;
        }

        #bottomCenter {
            transform-origin: center;
            <!-- animation: minusOneTenth 4s alternate infinite ease-in-out; -->
        }

        #bottomLeft {
            transform-origin: center;
            animation: minusTwoTenth 4s alternate infinite ease-in-out;
        }

        #topLeft {
            transform-origin: center;
            animation: minusOneTenth 4s alternate infinite ease-in-out;
        }

        #bottomRight {
            transform-origin: center;
            animation: minusOneTenth 4s alternate infinite ease-in-out;
        }
        
    </style>
    <g id="circles" stroke="none" stroke-width="1" fill="none" fill-rule="evenodd">
        <path d="M510,360.998921 C510,442.185319 443.291089,508 360.998907,508 C278.713285,508 212,442.185319 212,360.998921 C212,279.814681 278.713285,214 360.998907,214 C443.291089,214 510,279.814681 510,360.998921" id="inner" fill="#F6F9F8"></path>
        <path d="M586,169.499798 C586,184.68773 573.687953,197 558.499798,197 C543.312855,197 531,184.68773 531,169.499798 C531,154.31227 543.312855,142 558.499798,142 C573.687953,142 586,154.31227 586,169.499798" id="topRight" fill="#FEEEE6"></path>
        <path d="M137,467.999699 C137,490.643524 118.643857,509 95.9996991,509 C73.3573468,509 55,490.643524 55,467.999699 C55,445.356476 73.3573468,427 95.9996991,427 C118.643857,427 137,445.356476 137,467.999699" id="bottomLeft" fill="#DAD9E9"></path>
        <path d="M399,571.499732 C399,591.65826 382.658555,608 362.499732,608 C342.342516,608 326,591.65826 326,571.499732 C326,551.34174 342.342516,535 362.499732,535 C382.658555,535 399,551.34174 399,571.499732" id="bottomCenter" fill="#FDE4E9"></path>
        <path d="M179,247.999846 C179,259.597903 169.598073,269 157.999846,269 C146.402543,269 137,259.597903 137,247.999846 C137,236.402097 146.402543,227 157.999846,227 C169.598073,227 179,236.402097 179,247.999846" id="topLeft" fill="#E6E6F9"></path>
        <path d="M647,477.499732 C647,497.65826 630.658555,514 610.499732,514 C590.342516,514 574,497.65826 574,477.499732 C574,457.34174 590.342516,441 610.499732,441 C630.658555,441 647,457.34174 647,477.499732" id="bottomRight" fill="#FEF1F4"></path>
    </g>
</svg>