<?xml version="1.0" encoding="UTF-8"?>
<svg width="64px" height="65px" viewBox="0 0 64 65" version="1.1" xmlns="http://www.w3.org/2000/svg" xmlns:xlink="http://www.w3.org/1999/xlink">
    <!-- Generator: Sketch 57.1 (83088) - https://sketch.com -->
    <title>Artboard</title>
    <desc>Created with Sketch.</desc>
    <defs>
        <linearGradient x1="71.9148472%" y1="9.32404037%" x2="24.0391338%" y2="86.8035253%" id="linearGradient-1">
            <stop stop-color="#FF3469" offset="0%"></stop>
            <stop stop-color="#FF7A49" offset="100%"></stop>
        </linearGradient>
    </defs>
    <g id="Artboard" stroke="none" stroke-width="1" fill="none" fill-rule="evenodd">
        <path d="M41.162175,33.817252 C41.3889706,34.0856754 41.5119379,34.9889869 41.194711,35.7109698 C40.0597759,37.8783463 36.9985132,40.5021377 34.1889267,42.3582572 C31.3673784,44.2219916 28.9104256,45.3932506 28.9104256,45.3932506 C28.1797992,45.7368706 27.6649635,46.4997833 27.6190302,47.3021981 C27.3907991,52.0629066 30.6204839,56.4628617 35.3185987,59.8238657 C37.2599378,61.2123196 39.489763,62.4375662 41.9387504,63.4256868 C38.8111058,64.4476702 35.4700547,65 32,65 C27.9093397,65 23.9979528,64.2324395 20.4020055,62.8334847 L20.3271197,63.242933 C22.7654121,49.7427573 26.2735674,42.9679211 29.4458356,39.3732363 C32.5602086,35.8413741 35.2602251,35.2421807 37.8530639,34.0257085 C40.3650409,33.0319707 40.9267668,33.5435934 41.162175,33.817252 Z M20.1151567,38.3599855 C18.2920594,47.2626597 17.0332859,55.6648907 16.1706877,60.8153975 C10.9289431,57.8275803 6.61453348,53.4000278 3.76435952,48.0715465 C9.39892969,45.127868 14.9278984,41.8075742 20.1151567,38.3599855 Z M64,33 C64,44.811115 57.6010664,55.127679 48.0808465,60.6720447 C44.1447813,59.7291054 40.6437947,58.1069347 37.9487582,56.1792085 C34.582709,53.7710125 32.7367647,50.9868332 32.3176234,48.6842932 C33.4027975,48.1074684 34.8822324,47.2922036 36.6903774,46.0981001 C39.7918317,44.0487538 43.3731932,41.3245415 45.2291854,37.7350919 C45.2392333,37.7127233 45.2502382,37.6927343 45.2617215,37.6703657 C46.2583783,35.557721 46.2985699,32.9068016 44.5995165,30.912187 C42.90142,28.9156687 39.6942234,28.4644889 36.1903743,29.8508674 C36.1401348,29.8713323 36.0927661,29.8937009 36.0453973,29.9165455 C34.2142857,30.7951087 29.982681,31.9487584 26.0568197,36.4034452 C25.6247597,36.8898437 25.2185371,37.5870783 24.7960465,38.1520049 C24.9826505,37.2615435 25.0812157,36.4810214 25.2807384,35.5834211 L25.5223667,34.637752 L25.5223667,34.637752 C27.0151988,33.5583471 28.5348252,32.4775145 29.9290921,31.3943022 C38.410962,24.7965113 44.878944,18.4033694 47.4564717,12.7398253 C48.639254,10.1331673 48.9488253,7.65929312 48.3909272,5.51571306 C57.73877,11.0957135 64,21.3166624 64,33 Z M32,1 C33.4525845,1 34.8825637,1.09678513 36.2838405,1.28425843 C34.8240323,2.07140198 33.422913,3.21740953 32.188436,4.7128224 C32.1716895,4.73281138 32.1563784,4.75518 32.1391534,4.77754862 C27.1721375,11.2492186 23.945802,21.5763819 21.5055958,32.004442 C15.4855759,36.2486744 8.76247267,40.3926051 1.93061204,43.9721464 C0.681453453,40.5496098 4.72026137e-16,36.8543859 0,33 C-2.164332e-15,15.326888 14.326888,1 32,1 Z M41.2336054,4.66235534 C41.754127,4.68280278 42.2130078,4.79502594 42.5882335,4.96526277 C43.3333034,5.31191822 43.8225154,5.84307615 44.0729919,6.78032976 C44.3210224,7.71473024 44.2628062,9.14414899 43.3788001,11.0462365 C41.4733193,15.1404798 35.254456,21.5890319 26.8933333,27.9529412 C29.1950759,19.7226086 32.0912111,12.1508738 35.5401558,7.72566725 L35.5562998,7.7094995 L35.5562998,7.7094995 C37.557177,5.35186205 39.6735082,4.60006197 41.2336054,4.66235534 Z" id="Combined-Shape" fill="url(#linearGradient-1)"></path>
    </g>
</svg>