<?xml version="1.0" encoding="UTF-8"?>
<svg width="84px" height="84px" viewBox="0 0 84 84" version="1.1" xmlns="http://www.w3.org/2000/svg" xmlns:xlink="http://www.w3.org/1999/xlink">
    <!-- Generator: Sketch 54.1 (76490) - https://sketchapp.com -->
    <title>Combined Shape</title>
    <desc>Created with Sketch.</desc>
    <g id="Page-1" stroke="none" stroke-width="1" fill="none" fill-rule="evenodd">
        <path d="M66.0963449,76.4044085 C60.6210284,75.2431473 55.7431125,73.0257959 52.0535062,70.352011 C47.7746301,67.2505464 45.4280908,63.664861 44.895284,60.6994685 C46.2747426,59.9565881 48.1553801,58.9066258 50.4538695,57.3687652 C54.3963962,54.7294556 58.9489744,51.2210004 61.3082865,46.5982244 C61.3210593,46.5694164 61.3350485,46.543673 61.3496459,46.5148649 C62.6165825,43.7940346 62.6676736,40.3799717 60.5078599,37.81115 C58.3492627,35.2398764 54.2723179,34.6588115 49.8182724,36.4442989 C49.7544086,36.4706553 49.6941941,36.4994633 49.6339797,36.5288843 C47.3062954,37.6603673 41.9271368,39.1461282 36.9366352,44.8832248 C36.3874063,45.5096471 35.8710217,46.4076008 35.3339574,47.1351578 C35.5711659,45.9883514 35.6964606,44.9831337 35.9500912,43.8271332 C36.0395006,43.415852 36.1678364,43.0192814 36.2572458,42.6092261 C38.1549137,41.2190834 40.0866423,39.827102 41.8590154,38.4320558 C52.6410534,29.9349009 60.8630644,21.7013091 64.1395827,14.4073508 C65.2604822,11.9046342 65.7644549,9.49696189 65.6545248,7.28972933 C76.730037,14.8520757 84,27.576999 84,41.9996918 C84,56.2300933 76.9229751,68.8075506 66.0963449,76.4044085 Z M59.0196917,80.4084442 C53.8171942,82.7172177 48.0582699,84 41.9996918,84 C36.9878654,84 32.1809828,83.1220439 27.7244758,81.51153 C28.646518,81.1895956 29.4247829,80.4120131 29.6531183,79.4492319 C32.7526425,62.0626419 37.212162,53.3374741 41.2447062,48.7079559 C45.203655,44.1593454 48.6358794,43.3876569 51.9318609,41.8209882 C55.125052,40.5411743 55.8391104,41.2000823 56.138358,41.5525215 C56.4266575,41.8982184 56.5829718,43.0615741 56.1797174,43.9914005 C54.7370032,46.7827187 50.8455676,50.1618441 47.2740594,52.552301 C43.6873454,54.9525649 40.5641004,56.4610045 40.5641004,56.4610045 C39.6353379,56.9035455 38.9808858,57.8860846 38.922496,58.9194975 C38.6323718,65.0507131 42.7379032,70.7173219 48.710083,75.0458877 C51.669804,77.1904888 55.1570148,79.0327508 59.0196917,80.4084442 Z M24.3544103,80.1243597 C16.0674969,76.2822125 9.24371348,69.8175718 4.94876942,61.7959033 C13.3674732,57.5633988 21.6725858,52.5953019 29.3836737,47.4030116 C26.7999259,60.1858268 25.1078387,72.1675324 24.0112057,78.4378848 C23.940204,79.0218935 24.0749836,79.611464 24.3544103,80.1243597 Z M2.58427801,56.5376943 C0.912815199,52.0076359 0,47.1102576 0,41.9996918 C0,18.8041945 18.8050869,0 41.9996918,0 C44.2282095,0 46.4161848,0.173557634 48.5508388,0.507892791 C47.1973948,1.43995913 45.9049582,2.62884485 44.7310628,4.069544 C44.7097748,4.09528738 44.6903116,4.12409545 44.6684154,4.15290352 C38.3544121,12.48763 34.2531382,25.7877646 31.1511811,39.2178419 C22.4185033,45.4553972 12.5219767,51.5247377 2.58427801,56.5376943 Z M56.2291594,4.00454854 C56.8908393,4.03088237 57.4741625,4.1754122 57.9511442,4.3946566 C58.898267,4.84110679 59.5201467,5.52517383 59.8385491,6.73224288 C60.1538421,7.93563743 60.0798384,9.77655552 58.9561018,12.2262137 C56.5338804,17.4991028 48.6285458,25.8040563 38,34 C40.9259439,23.4003292 44.6074717,13.6488526 48.9917235,7.94972297 C48.9979423,7.94237399 49.004783,7.93931192 49.0122456,7.92890087 C51.5557335,4.89254962 54.245985,3.92432224 56.2291594,4.00454854 Z" id="Combined-Shape" fill="#F23D3D"></path>
    </g>
</svg>