<?xml version="1.0" encoding="UTF-8"?>
<svg width="423px" height="52px" viewBox="0 0 423 52" version="1.1" xmlns="http://www.w3.org/2000/svg" xmlns:xlink="http://www.w3.org/1999/xlink">
    <!-- Generator: Sketch 53.2 (72643) - https://sketchapp.com -->
    <title>Group 2</title>
    <desc>Created with Sketch.</desc>
    <defs>
        <linearGradient x1="50.238296%" y1="37.3274584%" x2="55.6966571%" y2="49.8626531%" id="linearGradient-1">
            <stop stop-color="#FF2C30" offset="0%"></stop>
            <stop stop-color="#FF6813" offset="100%"></stop>
        </linearGradient>
        <linearGradient x1="14.2313118%" y1="50.6928133%" x2="49.0529945%" y2="78.7128173%" id="linearGradient-2">
            <stop stop-color="#FE7D00" offset="0%"></stop>
            <stop stop-color="#FF9000" offset="100%"></stop>
        </linearGradient>
        <linearGradient x1="27.0557717%" y1="83.4305407%" x2="49.7875918%" y2="50.3094861%" id="linearGradient-3">
            <stop stop-color="#FF8F00" offset="0%"></stop>
            <stop stop-color="#FFBE00" offset="100%"></stop>
        </linearGradient>
    </defs>
    <g id="Page-1" stroke="none" stroke-width="1" fill="none" fill-rule="evenodd">
        <g id="Desktop-HD" transform="translate(-222.000000, -104.000000)">
            <g id="Group-2" transform="translate(222.000000, 105.000000)">
                <g id="Group">
                    <path d="M41.5851007,0.527761227 L77.9384592,47.7804706 C78.6119867,48.655933 78.4482861,49.9116375 77.5728237,50.585165 C77.2231878,50.8541535 76.7944292,51 76.3532942,51 L3.64657733,51 C2.54200783,51 1.64657733,50.1045695 1.64657733,49 C1.64657733,48.558865 1.79242383,48.1301064 2.06141237,47.7804706 L38.4147708,0.527761227 C39.0882983,-0.347701206 40.3440028,-0.511401806 41.2194652,0.162125704 C41.3566521,0.267668911 41.4795575,0.390574384 41.5851007,0.527761227 Z" id="Triangle" fill="url(#linearGradient-1)"></path>
                    <path d="M3.37768101,0.0459835156 L57,51 L2,51 C0.8954305,51 4.05948992e-15,50.1045695 0,49 L2.22044605e-15,1.49580938 C2.0851753e-15,0.391239876 0.8954305,-0.504190624 2,-0.504190624 C2.51277571,-0.504190624 3.00596327,-0.307237163 3.37768101,0.0459835156 Z" id="Triangle" fill="url(#linearGradient-2)"></path>
                    <path d="M26.377681,0.0459835156 L80,51 L25,51 C23.8954305,51 23,50.1045695 23,49 L23,1.49580938 C23,0.391239876 23.8954305,-0.504190624 25,-0.504190624 C25.5127757,-0.504190624 26.0059633,-0.307237163 26.377681,0.0459835156 Z" id="Triangle" fill="url(#linearGradient-3)" transform="translate(51.500000, 25.500000) scale(-1, 1) translate(-51.500000, -25.500000) "></path>
                </g>
                <path d="M136.776,16.336 L136.776,23.84 C136.02933,23.6906659 135.28267,23.616 134.536,23.616 C132.407989,23.616 130.690673,24.2226606 129.384,25.436 C128.077327,26.6493394 127.424,28.6373195 127.424,31.4 L127.424,44 L119.976,44 L119.976,16.448 L127.2,16.448 L127.2,20.536 C128.544007,17.661319 131.157314,16.224 135.04,16.224 C135.450669,16.224 136.02933,16.261333 136.776,16.336 Z M160.016,44 C159.866666,43.2533296 159.792,42.2640062 159.792,41.032 C159.082663,42.2640062 158.028007,43.1879969 156.628,43.804 C155.227993,44.4200031 153.744008,44.728 152.176,44.728 C148.927984,44.728 146.370676,43.6920104 144.504,41.62 C142.637324,39.5479896 141.704,36.9626822 141.704,33.864 L141.704,16.448 L149.152,16.448 L149.152,32.352 C149.152,33.9946749 149.581329,35.3293282 150.44,36.356 C151.298671,37.3826718 152.549325,37.896 154.192,37.896 C155.797341,37.896 157.066662,37.4013383 158,36.412 C158.933338,35.4226617 159.4,34.1066749 159.4,32.464 L159.4,16.448 L166.848,16.448 L166.848,39.016 C166.848,40.7706754 166.941332,42.4319922 167.128,44 L160.016,44 Z M182.024,44 L174.8,44 L174.8,3.456 L182.136,3.456 L182.136,19.472 C182.808003,18.4266614 183.881326,17.5400036 185.356,16.812 C186.830674,16.0839964 188.538657,15.72 190.48,15.72 C194.40002,15.72 197.498655,17.0639866 199.776,19.752 C202.053345,22.4400134 203.192,25.8933122 203.192,30.112 C203.192,34.3306878 201.997345,37.8119863 199.608,40.556 C197.218655,43.3000137 194.082686,44.672 190.2,44.672 C186.429314,44.672 183.704008,43.3280134 182.024,40.64 L182.024,44 Z M193.784,35.936 C195.090673,34.5173262 195.744,32.5946788 195.744,30.168 C195.744,27.7413212 195.100006,25.8373402 193.812,24.456 C192.523994,23.0746598 190.890677,22.384 188.912,22.384 C186.933323,22.384 185.290673,23.0746598 183.984,24.456 C182.677327,25.8373402 182.024,27.7413212 182.024,30.168 C182.024,32.5946788 182.68666,34.507993 184.012,35.908 C185.33734,37.308007 186.970657,38.008 188.912,38.008 C190.890677,38.008 192.51466,37.3173402 193.784,35.936 Z M214.504,27.088 L226.824,27.088 C226.749333,25.5573257 226.198672,24.2693386 225.172,23.224 C224.145328,22.1786614 222.642677,21.656 220.664,21.656 C218.871991,21.656 217.416006,22.2159944 216.296,23.336 C215.175994,24.4560056 214.578667,25.7066598 214.504,27.088 Z M227.552,34.256 L233.768,36.104 C233.02133,38.6426794 231.556011,40.7333251 229.372,42.376 C227.187989,44.0186749 224.472016,44.84 221.224,44.84 C217.266647,44.84 213.90668,43.5053467 211.144,40.836 C208.38132,38.1666533 207,34.5920224 207,30.112 C207,25.8559787 208.343987,22.3746802 211.032,19.668 C213.720013,16.9613198 216.893315,15.608 220.552,15.608 C224.808021,15.608 228.139988,16.8773206 230.548,19.416 C232.956012,21.9546794 234.16,25.4453111 234.16,29.888 C234.16,30.1866682 234.150667,30.5226648 234.132,30.896 C234.113333,31.2693352 234.104,31.5679989 234.104,31.792 L234.048,32.184 L214.336,32.184 C214.410667,33.976009 215.119993,35.4693274 216.464,36.664 C217.808007,37.8586726 219.413324,38.456 221.28,38.456 C224.453349,38.456 226.543995,37.056014 227.552,34.256 Z M247.488,28.152 L247.488,44 L240.04,44 L240.04,16.448 L247.264,16.448 L247.264,19.864 C248.048004,18.5199933 249.167993,17.4933369 250.624,16.784 C252.080007,16.0746631 253.610659,15.72 255.216,15.72 C258.464016,15.72 260.937325,16.7373232 262.636,18.772 C264.334675,20.8066768 265.184,23.4293173 265.184,26.64 L265.184,44 L257.736,44 L257.736,27.928 C257.736,26.2853251 257.316004,24.960005 256.476,23.952 C255.635996,22.943995 254.357342,22.44 252.64,22.44 C251.071992,22.44 249.821338,22.9813279 248.888,24.064 C247.954662,25.1466721 247.488,26.5093251 247.488,28.152 Z M299.456,16.448 L288.424,28.04 L299.68,44 L290.552,44 L283.272,33.472 L280.192,36.72 L280.192,44 L272.744,44 L272.744,3.456 L280.192,3.456 L280.192,26.696 L289.712,16.448 L299.456,16.448 Z M301.696,36.496 C301.696,34.1439882 302.461326,32.2586738 303.992,30.84 C305.522674,29.4213262 307.501321,28.5253352 309.928,28.152 L316.704,27.144 C318.08534,26.9573324 318.776,26.3040056 318.776,25.184 C318.776,24.1386614 318.374671,23.2800034 317.572,22.608 C316.769329,21.9359966 315.621341,21.6 314.128,21.6 C312.559992,21.6 311.318671,22.029329 310.404,22.888 C309.489329,23.746671 308.976001,24.8106603 308.864,26.08 L302.256,24.68 C302.517335,22.2906547 303.693323,20.1813425 305.784,18.352 C307.874677,16.5226575 310.637316,15.608 314.072,15.608 C318.178687,15.608 321.202657,16.5879902 323.144,18.548 C325.085343,20.5080098 326.056,23.0186514 326.056,26.08 L326.056,39.632 C326.056,41.2746749 326.167999,42.7306603 326.392,44 L319.56,44 C319.373332,43.1786626 319.28,42.0773402 319.28,40.696 C317.525325,43.421347 314.818685,44.784 311.16,44.784 C308.322652,44.784 306.036009,43.9626749 304.3,42.32 C302.563991,40.6773251 301.696,38.7360112 301.696,36.496 Z M312.728,39.24 C314.482675,39.24 315.929328,38.7453383 317.068,37.756 C318.206672,36.7666617 318.776,35.1333447 318.776,32.856 L318.776,31.624 L312.56,32.576 C310.282655,32.9120017 309.144,34.0693234 309.144,36.048 C309.144,36.9440045 309.46133,37.6999969 310.096,38.316 C310.73067,38.9320031 311.607994,39.24 312.728,39.24 Z M341.008,44 L333.56,44 L333.56,16.448 L341.008,16.448 L341.008,44 Z M332.664,7.432 C332.664,6.16266032 333.111996,5.07067124 334.008,4.156 C334.904004,3.24132876 335.98666,2.784 337.256,2.784 C338.52534,2.784 339.607996,3.23199552 340.504,4.128 C341.400004,5.02400448 341.848,6.1253268 341.848,7.432 C341.848,8.66400616 341.400004,9.72799552 340.504,10.624 C339.607996,11.5200045 338.52534,11.968 337.256,11.968 C335.98666,11.968 334.904004,11.5200045 334.008,10.624 C333.111996,9.72799552 332.664,8.66400616 332.664,7.432 Z M346.608,36.328 L352.992,34.928 C353.066667,36.1226726 353.542662,37.1213293 354.42,37.924 C355.297338,38.7266707 356.501326,39.128 358.032,39.128 C359.189339,39.128 360.08533,38.8666693 360.72,38.344 C361.35467,37.8213307 361.672,37.1680039 361.672,36.384 C361.672,35.0026598 360.682677,34.1066687 358.704,33.696 L355.064,32.856 C352.487987,32.2959972 350.556006,31.2880073 349.268,29.832 C347.979994,28.3759927 347.336,26.6400101 347.336,24.624 C347.336,22.1226542 348.31599,19.9946754 350.276,18.24 C352.23601,16.4853246 354.690652,15.608 357.64,15.608 C359.506676,15.608 361.149326,15.878664 362.568,16.42 C363.986674,16.961336 365.087996,17.6519958 365.872,18.492 C366.656004,19.3320042 367.253331,20.181329 367.664,21.04 C368.074669,21.898671 368.335999,22.7386626 368.448,23.56 L362.232,24.96 C362.082666,23.9893285 361.644004,23.1306704 360.916,22.384 C360.187996,21.6373296 359.114674,21.264 357.696,21.264 C356.725328,21.264 355.89467,21.5253307 355.204,22.048 C354.51333,22.5706693 354.168,23.2239961 354.168,24.008 C354.168,25.3520067 355.007992,26.1733318 356.688,26.472 L360.608,27.312 C363.25868,27.8720028 365.283993,28.8986592 366.684,30.392 C368.084007,31.8853408 368.784,33.6773229 368.784,35.768 C368.784,38.2320123 367.850676,40.359991 365.984,42.152 C364.117324,43.944009 361.48535,44.84 358.088,44.84 C356.146657,44.84 354.410674,44.5506696 352.88,43.972 C351.349326,43.3933304 350.164004,42.6466712 349.324,41.732 C348.483996,40.8173288 347.849335,39.9026712 347.42,38.988 C346.990665,38.0733288 346.720001,37.186671 346.608,36.328 Z M380.096,27.088 L392.416,27.088 C392.341333,25.5573257 391.790672,24.2693386 390.764,23.224 C389.737328,22.1786614 388.234677,21.656 386.256,21.656 C384.463991,21.656 383.008006,22.2159944 381.888,23.336 C380.767994,24.4560056 380.170667,25.7066598 380.096,27.088 Z M393.144,34.256 L399.36,36.104 C398.61333,38.6426794 397.148011,40.7333251 394.964,42.376 C392.779989,44.0186749 390.064016,44.84 386.816,44.84 C382.858647,44.84 379.49868,43.5053467 376.736,40.836 C373.97332,38.1666533 372.592,34.5920224 372.592,30.112 C372.592,25.8559787 373.935987,22.3746802 376.624,19.668 C379.312013,16.9613198 382.485315,15.608 386.144,15.608 C390.400021,15.608 393.731988,16.8773206 396.14,19.416 C398.548012,21.9546794 399.752,25.4453111 399.752,29.888 C399.752,30.1866682 399.742667,30.5226648 399.724,30.896 C399.705333,31.2693352 399.696,31.5679989 399.696,31.792 L399.64,32.184 L379.928,32.184 C380.002667,33.976009 380.711993,35.4693274 382.056,36.664 C383.400007,37.8586726 385.005324,38.456 386.872,38.456 C390.045349,38.456 392.135995,37.056014 393.144,34.256 Z M422.432,16.336 L422.432,23.84 C421.68533,23.6906659 420.93867,23.616 420.192,23.616 C418.063989,23.616 416.346673,24.2226606 415.04,25.436 C413.733327,26.6493394 413.08,28.6373195 413.08,31.4 L413.08,44 L405.632,44 L405.632,16.448 L412.856,16.448 L412.856,20.536 C414.200007,17.661319 416.813314,16.224 420.696,16.224 C421.106669,16.224 421.68533,16.261333 422.432,16.336 Z" id="rubenkaiser" fill="#0A0542" fill-rule="nonzero"></path>
            </g>
        </g>
    </g>
</svg>