<?xml version="1.0" encoding="UTF-8"?>
<svg width="204px" height="242px" viewBox="0 0 204 242" version="1.1" xmlns="http://www.w3.org/2000/svg" xmlns:xlink="http://www.w3.org/1999/xlink">
    <path d="M204,139.999252 C204,196.33267 158.333497,242 101.999251,242 C45.6694968,242 0,196.33267 0,139.999252 C0,83.6673296 45.6694968,38 101.999251,38 C158.333497,38 204,83.6673296 204,139.999252" id="Fill-1" fill="#F4F7F9"></path>
    <path d="M130.051842,188 L159.038788,192.815967 L177,208.957629 C158.349765,229.268453 131.571127,242 101.817544,242 C71.1844604,242 43.7030868,228.5025 25.0005537,207.131651 L38.0131563,192.815967 L66.8080449,188.867842 L130.051842,188 Z" id="Combined-Shape" fill="#5ABD65"></path>
    <path d="M130.44737,188 L146.000137,190.578082 C134.700262,201.526027 120.182296,207 102.44624,207 C84.5690474,207 69.0869675,201.438562 56,190.315685 L56.062,190.367 L67.0329125,188.867828 L130.44737,188 Z" id="Combined-Shape" fill="#45933B"></path>
    <path d="M67,144 L67,188.541393 C77.0034111,194.847131 88.8375972,198 102.502558,198 C116.167519,198 127.333333,194.847131 136,188.541393 L136,144 L67,144 Z" id="Path-21" fill="#FAC498"></path>
    <polygon id="Path-34" fill="#F0B07D" points="156.854049 80 159 107.470177 157.927025 115.652898 149 124 152.756414 82.4670172"></polygon>
    <polygon id="Path-34" fill="#F0B07D" transform="translate(49.000000, 102.000000) scale(-1, 1) translate(-49.000000, -102.000000) " points="51.8540495 80 54 107.470177 52.9270247 115.652898 44 124 47.7564143 82.4670172"></polygon>
    <path d="M71.3498525,32 L131.773852,32 C140.324854,32 147.54506,38.3515904 148.635149,46.8328256 L156,104.133679 L156,104.133679 L147.657791,139.383519 L137.333803,164.543559 C131.511157,178.733618 117.692703,188 102.354484,188 C86.9857079,188 73.1085828,178.803906 67.1191533,164.650249 L56.4269841,139.383519 L56.4269841,139.383519 L47,104.133679 L54.4931928,46.797042 C55.5995009,38.3317605 62.8125866,32 71.3498525,32 Z" id="Rectangle" fill="#FFDAB8"></path>
    <path d="M56.3271625,74.7516052 L48.6160202,93 C44.9027968,79.8965046 42.5088853,69.2011837 41.4342858,60.9140372 C39.8223865,48.4833174 42.9007077,40.3313514 47.3152643,28.1432352 C50.2583021,20.0178244 54.1468826,15.711481 58.981006,15.224205 C74.6674328,5.01851117 86.2389947,-0.0559106405 93.6956916,0.000939574614 C92.9454929,1.01442193 92.505591,2.44397185 92.505591,4.13431715 C102.555105,-1.03808263 135.988052,4.05914871 147.447369,13.2104834 C146.098887,14.5936906 144.970319,17.2183083 144.970319,18.1249728 C144.970319,23.0440318 152.453396,38.5817859 152.985207,47.6362081 C153.357596,53.9763833 146.567894,47.6344725 147.447369,53.269894 C141.075733,45.5529154 123.56738,41.9616256 105.546961,41.1996377 C105.546961,41.9050937 105.546961,42.2120405 105.891532,43.3336987 C94.9009222,42.5891373 84.9787245,40.8396106 80.0257618,36.3463781 C71.6348183,36.3463781 63.0126178,40.1096547 54.1591603,47.6362081 L56.3271625,74.7516052 Z" id="Path-31" fill="#5F1F17"></path>
    <path d="M133.851465,74.4608014 L127.26932,94 C123.03651,85.4782742 120.387344,77.1394821 119.32182,68.9836235 C117.723534,56.7498356 122.374142,41.7379767 126.751415,29.7429489 C129.669596,21.7462638 133.525334,17.8351111 138.31863,18.0094908 L162,11 L162,29.0788524 L133.851465,45.0736679 L133.851465,74.4608014 Z" id="Path-31" fill="#5F1F17" transform="translate(140.500000, 52.500000) scale(-1, 1) translate(-140.500000, -52.500000) "></path>
    <!-- right -->
    <path d="M126.5,99 C129.537566,99 132,95.8341751 132,91.9289322 C132,88.0236893 121,88.0236893 121,91.9289322 C121,95.8341751 123.462434,99 126.5,99 Z" id="eyeRight" fill="#000000"></path>
    <!-- left -->
    <path d="M75.5,99 C78.5375661,99 81,95.8341751 81,91.9289322 C81,88.0236893 70,88.0236893 70,91.9289322 C70,95.8341751 72.4624339,99 75.5,99 Z" id="eyeLeft" fill="#000000"></path>
    <path d="M76,90.9793613 C83.1797017,90.9793613 86.8737236,92 89,94 C89,87.9248678 83.1797017,83 76,83 C68.8202983,83 63,87.9248678 63,94 C65.42553,92 68.8202983,90.9793613 76,90.9793613 Z" id="Oval" fill="#F0B07D"></path>
    <path d="M102.5,128.077775 C107.746705,128.077775 110.446183,128.727273 112,130 C112,126.134007 107.746705,123 102.5,123 C97.2532949,123 93,126.134007 93,130 C94.7725027,128.727273 97.2532949,128.077775 102.5,128.077775 Z" id="Oval" fill="#F0B07D" transform="translate(102.500000, 126.500000) scale(1, -1) translate(-102.500000, -126.500000) "></path>
    <path d="M127,90.9793613 C134.179702,90.9793613 137.873724,92 140,94 C140,87.9248678 134.179702,83 127,83 C119.820298,83 114,87.9248678 114,94 C116.42553,92 119.820298,90.9793613 127,90.9793613 Z" id="Oval" fill="#F0B07D"></path>
    <path d="M76.5380613,20.219006 C79.0122068,27.4169798 85.1792011,30.7258722 96,32 C82.1620065,27.4169798 80.9249337,20.8784539 80.9249337,18.8258866 C80.9249337,16.7733194 74.0639158,13.0210322 76.5380613,20.219006 Z" id="Path-19" fill="#824746"></path>
    <path d="M85.6209116,19.7821034 C87.8763062,24.7978977 98.977395,30.6916151 110,32 C95.9039301,27.2937575 90.6456991,19.7821034 89.2610026,17.6397576 C87.8763062,15.4974117 83.365517,14.7663091 85.6209116,19.7821034 Z" id="Path-19" fill="#824746"></path>
    <path d="M98.3477105,19.1274332 C99.6107314,21.9488175 105.827341,25.2640335 112,26 C104.106201,23.3527386 101.161592,19.1274332 100.386161,17.9223636 C99.6107314,16.7172941 97.0846895,16.3060489 98.3477105,19.1274332 Z" id="Path-19" fill="#824746"></path>
    <path d="M67.7961519,25.1814437 C68.8787413,26.7488794 74.2072639,28.5906661 79.4981144,28.9995364 C72.7320008,27.5288356 70.2080499,25.1814437 69.5433956,24.5119606 C68.8787413,23.8424776 66.7135625,23.614008 67.7961519,25.1814437 Z" id="Path-19" fill="#824746" transform="translate(73.498114, 26.499536) rotate(24.000000) translate(-73.498114, -26.499536) "></path>
    <path d="M128.34771,24.1274332 C129.610731,26.9488175 135.827341,30.2640335 142,31 C134.106201,28.3527386 131.161592,24.1274332 130.386161,22.9223636 C129.610731,21.7172941 127.08469,21.3060489 128.34771,24.1274332 Z" id="Path-19" fill="#824746" transform="translate(135.000000, 26.500000) scale(-1, -1) translate(-135.000000, -26.500000) "></path>
    <polygon id="Path-32" fill="#5F1F17" points="65.2420625 81 75.072734 81 81.7723667 78.2914706 88 80.5807858 83.1767897 74 72.945505 74 62 78.2914706"></polygon>
    <polygon id="Path-32" fill="#5F1F17" transform="translate(129.000000, 77.500000) scale(-1, 1) translate(-129.000000, -77.500000) " points="119.242063 81 129.072734 81 135.772367 78.2914706 142 80.5807858 137.17679 74 126.945505 74 116 78.2914706"></polygon>
    <polygon id="Path-33" fill="#FBD0A9" points="86.7868814 118 90 123.429416 71 136"></polygon>
    <polygon id="Path-33" fill="#FBD0A9" transform="translate(124.500000, 127.000000) scale(-1, 1) translate(-124.500000, -127.000000) " points="130.786881 118 134 123.429416 115 136"></polygon>
    <polygon id="Rectangle" fill="#FBD0A9" points="97 94 106 94 104 101.142018 106 111 97 111 99 101.142018"></polygon>
    <polygon id="Rectangle" fill="#FBD0A9" points="105 160 107 164 98 164 100 160"></polygon>
    <path d="M79,145.20105 C90.1087146,143.59965 97.9420479,143.59965 102.5,145.20105 C107.661884,143.59965 115.495218,143.59965 126,145.20105 C118.166667,151.733683 110.333333,155 102.5,155 C94.6666667,155 86.8333333,151.733683 79,145.20105 Z" id="Rectangle" fill="#D7716F"></path>
    <path d="M123.000147,144.777233 L122.978167,144.846084 C121.747147,148.313094 113.047037,151 102.497425,151 C91.8985823,151 83.166543,148.287958 81.9999382,144.797495 C91.5222542,143.606736 98.3544075,143.749565 102.497425,145.225692 C107.162988,143.757873 113.997228,143.608386 123.000147,144.777233 Z" id="Combined-Shape" fill="#FFFFFF"></path>
</svg>