<?xml version="1.0" encoding="UTF-8"?>
<svg width="122px" height="120px" viewBox="0 0 122 120" version="1.1" xmlns="http://www.w3.org/2000/svg" xmlns:xlink="http://www.w3.org/1999/xlink">
    <!-- Generator: Sketch 57.1 (83088) - https://sketch.com -->
    <title>vision</title>
    <desc>Created with Sketch.</desc>
    <g id="Page-1" stroke="none" stroke-width="1" fill="none" fill-rule="evenodd">
        <g id="Desktop-HD" transform="translate(-262.000000, -1106.000000)">
            <g id="vision" transform="translate(262.000000, 1106.000000)">
                <path d="M60.9995524,120 C27.3121501,120 0,93.136865 0,59.9995597 C0,26.863135 27.3121501,0 60.9995524,0 C94.6896405,0 122,26.863135 122,59.9995597 C122,93.136865 94.6896405,120 60.9995524,120 Z" id="Fill-1" fill="#DAD9E9"></path>
                <ellipse id="Oval" stroke="#9793D2" stroke-width="3" cx="61.5" cy="60" rx="10.5" ry="10"></ellipse>
                <path d="M40,60.2682927 C46.8602378,52.7560976 53.9384271,49 61.2345679,49 C68.5307087,49 75.7858527,52.7560976 83,60.2682927 C75.5204327,67.4227642 68.2652887,71 61.2345679,71 C54.2038471,71 47.1256578,67.4227642 40,60.2682927 Z" id="Path-16" stroke="#9793D2" stroke-width="3"></path>
                <circle id="Oval" fill="#9793D2" cx="61" cy="60" r="3"></circle>
            </g>
        </g>
    </g>
</svg>