<?xml version="1.0" encoding="UTF-8"?>
<svg width="619px" height="485px" viewBox="0 0 619 485" version="1.1" xmlns="http://www.w3.org/2000/svg" xmlns:xlink="http://www.w3.org/1999/xlink">
    <!-- Generator: Sketch 57.1 (83088) - https://sketch.com -->
    <title>Group 6</title>
    <desc>Created with Sketch.</desc>
    <defs>
        <linearGradient x1="23.0550047%" y1="69.5019805%" x2="3.31929399%" y2="77.1826467%" id="linearGradient-1">
            <stop stop-color="#C6C4D8" offset="0%"></stop>
            <stop stop-color="#F6F9F8" offset="100%"></stop>
        </linearGradient>
    </defs>
    <g id="Page-1" stroke="none" stroke-width="1" fill="none" fill-rule="evenodd">
        <g id="Group-6" fill-rule="nonzero">
            <path d="M417.11109,244.785632 L301.473979,364.07055 L1.53659071,485 L0,481.186739 L299.129555,360.582993 L413.665677,242.433795 L474.649754,108.590754 L600.746122,26.7333515 L603.54837,29.8155336 L477.892764,111.386809 L417.11109,244.785632 Z M413.402697,242.441013 L413.884088,242 L413.115912,243 L413.402697,242.441013 Z" id="Path-4" fill="url(#linearGradient-1)"></path>
            <circle id="Oval" fill="#C6C4D8" cx="298.5" cy="362.5" r="16.5"></circle>
            <ellipse id="Oval" fill="#1B1562" cx="298.5" cy="363" rx="8.5" ry="8"></ellipse>
            <ellipse id="Oval" fill="#C6C4D8" cx="414" cy="242.5" rx="16" ry="16.5"></ellipse>
            <ellipse id="Oval" fill="#1B1562" cx="414.5" cy="243" rx="8.5" ry="8"></ellipse>
            <ellipse id="Oval" fill="#C6C4D8" cx="478" cy="108.5" rx="16" ry="16.5"></ellipse>
            <ellipse id="Oval" fill="#1B1562" cx="478.5" cy="109" rx="8.5" ry="8"></ellipse>
            <path d="M227.978261,279.292761 L213,290.801909 C213.293071,294.700494 213.764085,297.292644 214.413043,298.578361 C215.062002,299.864078 216.475045,301.004624 218.652174,302 L239,293.290374 C239,288.520817 238.057971,284.78812 236.173913,282.092283 C234.289855,279.396447 231.557971,278.463272 227.978261,279.292761 Z" id="Path-9" fill="#FFDCC2"></path>
            <path d="M148.200525,204.099396 L156.35183,217.461914 C157.888663,216.655763 159.773946,216.147478 162.00768,215.937059 C164.241414,215.72664 166.908081,215.219163 170.00768,214.414627 L164.117326,198.023243 C159.776927,198.34216 156.55898,198.852546 154.463486,199.5544 C152.367992,200.256255 150.280338,201.771253 148.200525,204.099396 Z" id="Path-9" fill="#FFDCC2"></path>
            <path d="M293.726266,237.291606 C293.726266,263.278083 274.897556,284.964803 240.00654,303 C234.89775,297.872335 231.053797,293.159046 228.474684,288.860133 C225.89557,284.561219 224.024999,278.118994 222.862972,269.533459 C249.182927,255.928651 260.713608,245.266548 260.713608,232.390845 C260.713608,220.909913 254.007911,205.823558 248.243212,198.924756 C234.376429,201.460479 222.628692,195.506165 213,181.061815 C247.904008,159.440435 266.64557,147.489455 269.224684,145.208874 C270.514241,146.756483 271.287975,148.046157 272.061709,149.593766 C297.067987,139.357165 312.13104,137.090614 326.214235,140.44266 C337.147132,143.04488 346.506949,150.178439 354.322992,161.110564 C361.256282,170.808002 365.167722,181.143865 376,196.795839 C368.029244,202.064009 361.839371,205.582973 357.43038,207.352728 C353.414265,208.964785 346.96648,210.51854 338.087025,212.013994 C340.408228,199.891057 335.756288,184.809664 330.825654,177.913296 C326.777773,172.251614 323.001544,169.373572 319.526271,168.546396 C315.185033,167.513106 307.607519,168.255358 297.196166,171.275991 C289.664326,173.461194 280.932283,176.750086 271.033069,181.143865 C285.988471,199.798197 293.726266,218.496697 293.726266,237.291606 Z" id="Path-8" fill="#698BFC"></path>
            <path d="M349,201.592593 L358.837838,222 L375,217.166667 L366.567568,193 C361.799475,193.799808 358.403079,194.69487 356.378378,195.685185 C354.353678,196.6755 351.894219,198.644636 349,201.592593 Z" id="Path-9" fill="#FFDCC2"></path>
            <path d="M163,81.4245283 L176,99 L189,95.4339623 L182.76,72 C178.055482,72.7586992 174.704371,73.6077558 172.706667,74.5471698 C170.708962,75.4865838 167.473407,77.7790366 163,81.4245283 Z" id="Path-9" fill="#F3CAAA"></path>
            <path d="M215.603254,288 C219.438702,292.984636 221.930889,296.810547 223.079813,299.477733 C226.076518,306.434472 226.756012,313.908006 226.980627,318.862348 C227.334416,326.665903 222.842579,337.378454 213.505115,351 C214.034544,337.410613 214.032838,328.313447 213.5,323.708502 C212.405766,314.251815 208.928752,309.232855 207.801627,306.874494 C205.85122,302.793522 203.250678,299.052632 200,295.651822 C202.145366,293.218157 204.204129,291.517753 206.176288,290.550607 C208.148448,289.583462 211.29077,288.73326 215.603254,288 Z" id="Path-10" fill="#5B5454"></path>
            <path d="M369.967742,211.994631 L411,176 C408.85992,189.278115 405.591103,199.417448 401.193548,206.417998 C393.709677,218.331714 362.088349,234.110107 361.193548,231.76633 C360.471799,229.875833 359.042809,228.440292 358.096774,226.696664 C357.374429,225.365316 356.342171,223.33745 355,220.613064 C355.516129,218.923176 357.150538,217.233287 359.903226,215.543398 C362.655914,213.853509 366.010753,212.670587 369.967742,211.994631 Z" id="Path-10" fill="#5B5454"></path>
            <path d="M256.391033,37.2370398 C260.543063,35.4162926 263.71976,34.3906202 265.921123,34.1600227 C269.083034,33.8288058 273.951248,34.0117564 280.525766,34.7088747 C283.304969,61.4135515 273.849451,82.4904229 252.667387,95.8975335 C232.091365,108.921052 209.737053,110.49095 187,100.585551 L196.665172,78.2548847 C212.096449,84.977522 225.982773,84.0023131 239.719694,75.3075792 C252.850572,66.996438 258.238293,54.9869099 256.391033,37.2370398 Z" id="Path-12" fill="#008368"></path>
            <path d="M209.222222,184 C186.349436,147.009174 174.144928,125.345566 172.608696,119.009174 C171.072464,112.672783 171.072464,107.363914 172.608696,103.082569 C171.080428,101.130462 170.056273,99.5891775 169.536232,98.4587156 C169.016191,97.3282537 168.504113,95.5300886 168,93.0642202 C175.404651,89.4914113 180.696116,86.4944694 183.874396,84.0733945 C187.052676,81.6523196 190.978602,77.6278547 195.652174,72 C197.842773,73.1702811 199.464351,74.283431 200.516908,75.3394495 C201.569465,76.3954681 202.678966,78.0223794 203.845411,80.2201835 C212.721417,80.3914373 219.890499,81.675841 225.352657,84.0733945 C230.814815,86.470948 247.030596,106.422018 274,143.926606 C262.563607,149.749235 253.26087,157.284404 246.091787,166.53211 C238.922705,175.779817 226.63285,181.602446 209.222222,184 Z" id="Path-11" fill="#279C84"></path>
            <path d="M196.591068,117.841463 L187.700628,114 L175,125.012195 C177.370784,129.280488 179.656897,133.54878 181.858339,137.817073 C184.059781,142.085366 187.531286,148.146341 192.272854,156 C194.643638,149.426829 197.099093,145.073171 199.639218,142.939024 C202.179344,140.804878 201.163294,132.439024 196.591068,117.841463 Z" id="Path-13" fill="#008368"></path>
            <path d="M197.952095,96 L199,123.019179 C182.302284,123.72202 171.357328,131.000028 164.389155,145.864288 C157.291127,161.005549 158.624872,177.951488 169.184468,197.983777 C163.209133,203.121999 158.61722,206.608888 155.40873,208.444444 C153.56124,209.501382 150.569182,210.353234 146.432555,211 C132.047289,183.710147 129.993484,157.615471 141.065217,133.997645 C152.266804,110.102817 171.82109,97.0999073 197.952095,96 Z" id="Path-12" fill="#279C84"></path>
            <path d="M257.99232,25.9030404 L259.454545,39.985539 C264.251114,40.8303047 267.766266,41.1474781 270,40.9370592 C272.233734,40.7266403 274.900401,40.2191629 278,39.4146269 L272.909091,24 C267.974282,24.566839 264.45913,25.2011858 262.363636,25.9030404 C260.268142,26.6048949 258.811037,26.6048949 257.99232,25.9030404 Z" id="Path-9" fill="#FFDCC2"></path>
            <ellipse id="Oval" fill="#FFDCC2" cx="262.5" cy="14.5" rx="13.5" ry="14.5"></ellipse>
            <path d="M185.202157,86.5693769 C197.655749,86.5693769 209.124049,70.665453 201.600004,51.3721682 C194.075958,32.0788835 171.206984,18 155.158482,18 C139.109981,18 132.379403,31.8181634 140.369842,64.1474513 C148.36028,96.4767393 172.748565,86.5693769 185.202157,86.5693769 Z" id="Oval" fill="#FFDCC2"></path>
            <ellipse id="Oval" fill="#FFDCC2" cx="165.5" cy="222.5" rx="13.5" ry="14.5"></ellipse>
            <path d="M271,182 C274.056604,176.420513 275.584906,171.8 275.584906,168.138462 C275.584906,162.646154 273.292453,154.276923 271.764151,150.092308 C273.292453,149.569231 275.584906,148.523077 276.858491,148 C278.896226,151.923077 282.079109,156.466476 283.990566,157.938462 C286.068726,159.538822 294.433962,162.123077 298,171.538462 C293.160377,173.107692 287.632427,174.765977 282.462264,176.769231 C279.015489,178.104733 275.194734,179.848323 271,182 Z" id="Path-14" fill="#5476E7"></path>
            <path d="M160.515102,60 L156,45.0708589 C167.257931,41.6526551 175.088809,38.6153856 179.252973,36.1428796 C183.566552,33.5816575 186.819241,31.1761411 188.991111,29 L200,40.030541 C196.803276,43.2335518 192.539935,46.3864923 187.190046,49.5630323 C181.690742,52.8282884 172.878981,56.2460012 160.515102,60 Z" id="Path-15" fill="#EDBD9A"></path>
            <ellipse id="Oval" fill="#C6C4D8" cx="602.5" cy="27" rx="16.5" ry="17"></ellipse>
            <ellipse id="Oval" fill="#1B1562" cx="602.5" cy="27" rx="8.5" ry="8"></ellipse>
        </g>
    </g>
</svg>