<?xml version="1.0" encoding="UTF-8"?>
<svg width="135px" height="222px" viewBox="0 0 135 222" version="1.1" xmlns="http://www.w3.org/2000/svg" xmlns:xlink="http://www.w3.org/1999/xlink">
    <!-- Generator: Sketch 54.1 (76490) - https://sketchapp.com -->
    <title>caller</title>
    <desc>Created with Sketch.</desc>
    <g id="Page-1" stroke="none" stroke-width="1" fill="none" fill-rule="evenodd">
        <g id="Desktop-HD" transform="translate(-1022.000000, -1437.000000)" fill-rule="nonzero">
            <g id="caller" transform="translate(1022.000000, 1437.000000)">
                <path d="M67,125 L96.6323529,125 L129,146.04717 L83.4117647,218.339623 L67,222 L50.5884831,218.339623 L5,146.04717 L37.3676471,125 L67,125 Z" id="Combined-Shape" fill="#FFFFFF"></path>
                <path d="M38.4780698,125 L6.01156903,146.04717 L0,179.64847 C5.36823163,192.493196 13.070477,202.185125 23.1067362,208.724259 C38.1611249,218.532958 49.3643909,222 65,222 C65,216.419072 65,208.183223 65,197.292453 L31.1616753,141.471698 L38.4780698,125 Z" id="Path-3" fill="#424242"></path>
                <path d="M108.47807,125 L76.011569,146.04717 L70,179.64847 C75.3682316,192.493196 83.070477,202.185125 93.1067362,208.724259 C108.161125,218.532958 119.364391,222 135,222 C135,216.419072 135,208.183223 135,197.292453 L101.161675,141.471698 L108.47807,125 Z" id="Path-3" fill="#424242" transform="translate(102.500000, 173.500000) scale(-1, 1) translate(-102.500000, -173.500000) "></path>
                <path d="M14.8167253,33.0108508 C18.9971861,33.2356346 22.2085128,36.8948854 21.9894241,41.1840161 L21.1493638,57.6299981 C20.9302752,61.9191289 17.3637356,65.213933 13.1832747,64.9891492 C9.00281387,64.7643654 5.79148721,61.1051146 6.01057588,56.8159839 L6.85063615,40.3700019 C7.06972482,36.0808711 10.6362644,32.786067 14.8167253,33.0108508 Z" id="Rectangle" fill="#A1A1A1"></path>
                <path d="M117.183275,33.0108508 C121.363736,32.786067 124.930275,36.0808711 125.149364,40.3700019 L125.989424,56.8159839 C126.208513,61.1051146 122.997186,64.7643654 118.816725,64.9891492 C114.636264,65.213933 111.069725,61.9191289 110.850636,57.6299981 L110.010576,41.1840161 C109.791487,36.8948854 113.002814,33.2356346 117.183275,33.0108508 Z" id="Rectangle" fill="#A1A1A1"></path>
                <rect id="Rectangle" fill="#E1B5AF" x="5" y="60" width="22" height="32" rx="11"></rect>
                <rect id="Rectangle" fill="#E1B5AF" x="105" y="60" width="22" height="32" rx="11"></rect>
                <rect id="Rectangle" fill="#F8DBD8" x="12" y="0" width="108" height="142" rx="54"></rect>
                <circle id="Oval" fill="#FFFFFF" cx="46" cy="66" r="12"></circle>
                <path d="M58,61 C58,55.4771525 52.4035594,51 45.5,51 C38.5964406,51 33,55.4771525 33,61 C41.3333333,58.0710678 50.5925926,58.0710678 58,61 Z" id="Oval" fill="#E1B5AF"></path>
                <circle id="Oval" fill="#9AD6EE" cx="45.5" cy="68.5" r="7.5"></circle>
                <circle id="Oval" fill="#323232" cx="44.5" cy="69.5" r="3.5"></circle>
                <circle id="Oval" fill="#FFFFFF" cx="87" cy="66" r="12"></circle>
                <circle id="Oval" fill="#9AD6EE" cx="86.5" cy="68.5" r="7.5"></circle>
                <path d="M62,111.360614 L87.8351039,106 L88.7992285,110.427805 C89.8292585,115.158285 86.7969372,119.824871 81.9741502,120.931247 L73.9927947,122.762217 C69.096157,123.885535 64.1937981,120.92121 63.0430697,116.141211 C63.0282233,116.07954 63.0140526,116.017717 63.0005599,115.955751 L62,111.360614 Z" id="Rectangle" fill="#E97E7E"></path>
                <rect id="Rectangle" fill="#E1B5AF" x="60" y="73" width="15" height="23" rx="7.5"></rect>
                <rect id="Rectangle" fill="#E1B5AF" x="51" y="40" width="33" height="3" rx="1.5"></rect>
                <rect id="Rectangle" fill="#E1B5AF" x="47" y="31" width="39" height="3" rx="1.5"></rect>
                <path d="M99,61 C99,55.4771525 93.4035594,51 86.5,51 C79.5964406,51 74,55.4771525 74,61 C82.3333333,58.0710678 91.5925926,58.0710678 99,61 Z" id="Oval-Copy" fill="#E1B5AF"></path>
                <circle id="Oval" fill="#323232" cx="86.5" cy="69.5" r="3.5"></circle>
                <rect id="Rectangle" fill="#CB6666" x="57" y="144" width="21" height="21" rx="7"></rect>
                <polygon id="Path-4" fill="#CB6666" points="60 147.73913 33 138 33 170 60 162.347826"></polygon>
                <polygon id="Path-4" fill="#CB6666" points="75 147.73913 102 138 102 170 75 162.347826"></polygon>
                <g id="microphone" transform="translate(13.000000, 119.000000)">
                    <polygon id="Rectangle" fill="#767676" points="14.5649567 63.5644166 24.6472723 63.5644166 23.1579549 72.6450475 15.8205504 72.6450475"></polygon>
                    <polygon id="Rectangle" fill="#A2A2A2" points="8.14893775 19.069325 31.9798654 19.069325 28.4596607 65.3805428 11.1167045 65.3805428"></polygon>
                    <ellipse id="Oval" fill="#807C7C" cx="19.6061145" cy="13.1669149" rx="13.290325" ry="13.1669149"></ellipse>
                    <path d="M15.3784619,32.0566714 L27.2286516,33.2906111 C34.7802043,34.0769412 40.2585262,40.7792859 39.464826,48.2607171 L39.2732098,50.0668944 C38.4795097,57.5483255 31.7143455,62.9757773 24.1627928,62.1894472 L12.3126031,60.9555075 C4.76105041,60.1691774 -0.717271504,53.4668326 0.0764286708,45.9854015 L0.268044843,44.1792242 C1.06174502,36.697793 7.82690917,31.2703413 15.3784619,32.0566714 L15.3784619,32.0566714 Z" id="Rectangle" fill="#F2D2CE"></path>
                </g>
            </g>
        </g>
    </g>
</svg>